<?xml version="1.0" standalone="no"?>
<!DOCTYPE svg PUBLIC "-//W3C//DTD SVG 20010904//EN"
 "http://www.w3.org/TR/2001/REC-SVG-20010904/DTD/svg10.dtd">
<svg version="1.0" xmlns="http://www.w3.org/2000/svg"
 width="1024.000000pt" height="1024.000000pt" viewBox="0 0 1024.000000 1024.000000"
 preserveAspectRatio="xMidYMid meet">

<circle cx="512" cy="512" r="512" fill="#ffffff" />
<g transform="translate(0.000000,1024.000000) scale(0.100000,-0.100000)"
fill="#000000" stroke="none">
<path d="M5070 9547 c-14 -8 -35 -20 -46 -27 -19 -12 -35 -10 -117 10 -80 19
-115 22 -214 18 -108 -4 -125 -7 -183 -35 -62 -30 -65 -30 -109 -17 -123 38
-205 41 -247 9 -25 -19 -71 -19 -125 1 -119 42 -245 24 -297 -43 -15 -19 -42
-53 -60 -76 -18 -22 -40 -56 -48 -75 l-14 -35 -53 9 c-98 17 -215 9 -307 -21
-95 -30 -129 -51 -150 -89 -17 -32 -34 -33 -135 -1 -131 41 -196 30 -229 -40
-38 -80 7 -147 132 -196 84 -32 102 -49 102 -91 0 -36 -20 -100 -31 -96 -5 2
-49 52 -97 113 -105 132 -145 159 -237 159 -76 -1 -204 -38 -240 -72 -34 -31
-55 -80 -55 -129 l0 -38 -122 0 c-138 0 -180 -14 -233 -77 -26 -31 -27 -36
-21 -105 l6 -73 -34 0 c-79 0 -145 -41 -181 -114 -37 -73 -34 -133 10 -225 19
-40 35 -79 35 -87 0 -8 -16 -28 -35 -45 -48 -43 -69 -116 -63 -222 l5 -79 -44
-43 c-38 -38 -43 -48 -43 -88 0 -58 38 -103 96 -112 21 -3 53 -8 70 -11 35 -5
124 -91 124 -120 0 -9 -23 -71 -51 -137 -29 -67 -62 -151 -74 -187 -12 -36
-32 -84 -43 -107 -49 -94 -106 -257 -142 -402 -22 -86 -49 -183 -60 -216 -32
-92 -57 -199 -74 -315 -8 -58 -27 -134 -42 -170 -49 -120 -55 -174 -65 -535
-6 -187 -11 -437 -13 -555 -2 -127 -8 -229 -15 -250 -6 -19 -16 -114 -21 -210
-6 -96 -18 -223 -26 -281 -11 -69 -15 -148 -12 -230 l4 -124 82 -183 c89 -199
124 -312 146 -471 17 -120 56 -209 177 -412 38 -64 97 -174 130 -245 34 -71
79 -152 100 -181 58 -77 293 -288 373 -336 39 -23 105 -66 146 -97 41 -31 124
-90 185 -131 60 -41 148 -104 195 -142 47 -37 130 -90 186 -118 56 -27 109
-58 119 -69 10 -11 21 -41 26 -66 12 -61 31 -91 74 -111 34 -16 58 -13 122 13
6 3 21 -4 32 -15 45 -45 69 -54 125 -47 51 6 54 4 84 -28 17 -19 48 -44 70
-56 21 -12 47 -35 56 -51 30 -51 99 -73 149 -48 12 6 36 26 52 45 l30 35 35
-27 c32 -24 40 -25 103 -20 84 8 127 -12 184 -80 21 -26 53 -53 71 -61 49 -20
191 -7 257 23 70 33 100 31 122 -6 10 -17 37 -40 60 -51 36 -17 48 -19 76 -10
38 13 67 41 91 89 9 17 20 32 24 32 16 -1 96 -61 130 -100 65 -72 139 -71 193
3 28 39 34 42 78 42 67 0 91 16 173 114 l71 86 151 7 c83 4 279 11 436 16 157
6 313 15 347 21 34 6 110 33 170 60 59 26 146 60 193 74 59 18 118 47 190 93
58 36 148 87 200 113 105 51 348 208 480 309 91 70 194 159 330 287 47 45 101
92 120 105 19 13 90 76 158 140 121 112 177 181 318 385 38 55 101 144 141
198 119 163 206 352 268 587 13 47 39 130 58 185 20 55 46 150 57 210 35 185
49 235 100 356 32 75 55 149 65 210 9 51 18 96 20 99 9 15 26 178 35 345 8
134 8 226 0 328 -6 78 -15 248 -19 377 -8 270 -4 255 -110 378 -81 94 -108
139 -151 246 -82 207 -290 616 -389 765 -162 242 -162 242 -108 265 48 19 77
61 77 108 0 61 -66 180 -155 278 -42 47 -102 118 -133 159 -31 41 -78 97 -104
124 -42 44 -46 53 -40 81 9 42 8 121 -6 306 -16 224 -38 284 -116 321 -28 13
-48 31 -56 48 -14 35 -57 77 -101 99 -35 18 -46 42 -48 105 -3 99 -89 160
-177 127 -20 -8 -41 -8 -74 1 -37 9 -55 9 -81 0 -31 -11 -35 -10 -49 9 -8 12
-28 37 -43 56 -23 27 -31 49 -39 111 -12 99 -37 157 -77 177 -44 23 -79 20
-131 -14 -41 -27 -50 -29 -78 -19 -17 6 -47 31 -67 55 -66 81 -146 98 -207 46
-29 -25 -92 -53 -154 -69 -14 -3 -49 15 -112 56 -140 94 -194 110 -275 80 -33
-11 -44 -10 -107 10 -84 28 -127 21 -175 -29 -16 -16 -33 -30 -37 -30 -5 0
-38 27 -74 61 -66 61 -180 124 -270 148 -81 22 -155 -26 -169 -109 -8 -47 -25
-51 -83 -20 -20 11 -96 47 -167 80 -137 63 -186 73 -235 47z m839 -374 c33
-40 40 -73 16 -73 -15 0 -85 96 -85 118 0 20 33 -2 69 -45z m-465 -328 c28
-26 35 -55 13 -55 -21 0 -99 59 -92 70 11 18 52 10 79 -15z m297 -729 c21 -19
57 -40 81 -46 24 -6 72 -24 108 -40 36 -16 76 -32 90 -36 36 -9 57 -31 106
-106 66 -103 126 -123 203 -68 l42 31 25 -57 c82 -186 180 -250 267 -174 43
37 56 37 91 1 l27 -29 -33 -37 c-43 -50 -45 -102 -5 -143 23 -23 38 -28 95
-32 60 -4 67 -7 64 -25 -12 -71 -7 -97 26 -126 30 -27 38 -29 116 -29 82 0 84
0 127 -38 59 -52 80 -62 130 -62 38 0 48 5 85 46 l43 45 45 -20 c25 -11 47
-24 47 -28 1 -4 3 -28 4 -53 3 -62 24 -97 103 -177 37 -38 100 -106 141 -152
41 -45 99 -99 129 -119 50 -34 62 -37 126 -37 l71 -1 26 -49 c16 -31 45 -65
76 -88 38 -29 57 -53 76 -96 29 -66 85 -121 125 -121 15 0 60 -16 100 -36 56
-28 81 -35 110 -32 49 6 80 -6 94 -37 10 -23 7 -29 -38 -79 -88 -96 -149 -170
-207 -248 -31 -43 -61 -78 -66 -78 -5 0 -32 -21 -60 -46 -57 -51 -72 -94 -51
-145 32 -77 122 -80 238 -8 13 8 62 64 108 124 125 163 173 218 205 234 43 22
112 -9 159 -71 57 -76 109 -189 125 -275 43 -223 58 -528 37 -748 -7 -71 -17
-183 -22 -249 -12 -158 -20 -179 -83 -221 -29 -19 -57 -35 -63 -35 -24 0 -165
50 -252 89 -102 45 -162 53 -198 23 -25 -20 -44 -53 -44 -77 0 -34 33 -84 72
-110 84 -55 307 -141 395 -151 28 -4 54 -12 56 -18 5 -13 -53 -308 -75 -381
-9 -27 -27 -77 -41 -111 -14 -33 -32 -89 -41 -125 -43 -188 -125 -372 -224
-506 -33 -45 -95 -132 -138 -195 -160 -234 -265 -353 -419 -473 -29 -23 -96
-82 -151 -132 -270 -248 -286 -261 -533 -426 -79 -54 -189 -119 -245 -146 -55
-27 -144 -77 -196 -110 -61 -40 -119 -68 -165 -82 -38 -11 -117 -40 -174 -66
-141 -62 -203 -69 -644 -78 l-368 -7 -35 27 c-70 54 -124 52 -196 -6 -25 -21
-30 -21 -74 -9 -26 8 -70 13 -98 13 -147 -2 -213 -6 -236 -15 -44 -17 -221
-38 -264 -32 -22 4 -59 16 -81 27 -32 16 -57 20 -127 18 -50 -1 -115 5 -153
14 -37 8 -84 15 -106 15 -33 0 -48 7 -87 43 -26 24 -78 61 -117 82 l-70 39
-150 7 c-103 5 -164 12 -195 24 -25 10 -72 20 -105 24 -62 7 -91 21 -159 78
-33 27 -48 33 -87 33 -39 0 -54 -6 -89 -35 -23 -19 -46 -35 -51 -35 -24 0
-141 65 -194 108 -98 79 -460 335 -552 390 -35 20 -121 92 -192 160 l-130 123
-74 153 c-41 85 -92 180 -112 211 -61 97 -165 303 -165 329 0 43 -40 236 -67
320 -14 45 -57 150 -95 235 -83 183 -91 234 -65 408 9 59 21 182 27 273 12
176 13 192 30 285 5 33 13 274 16 535 5 521 12 593 64 723 20 49 36 120 49
208 11 78 34 178 54 239 19 58 45 148 57 200 32 141 71 259 137 415 33 77 72
174 87 215 15 41 42 104 59 140 l32 65 57 7 c32 4 71 14 87 22 32 17 81 71 81
90 0 24 35 43 101 56 37 6 78 19 91 28 78 53 95 61 132 67 80 13 123 41 151
100 23 50 29 55 78 70 28 9 86 20 127 25 84 10 119 21 162 52 35 25 67 89 68
135 0 37 -6 35 172 51 129 12 162 28 195 95 26 52 40 56 87 28 17 -10 49 -22
71 -26 22 -3 60 -18 85 -32 64 -38 118 -36 170 6 l40 32 52 -56 c45 -47 60
-57 97 -62 61 -8 97 14 171 103 63 78 85 88 115 54 22 -25 62 -37 148 -44 56
-6 76 -3 114 14 37 16 58 19 103 14 43 -5 65 -2 88 10 42 22 51 16 141 -84
102 -112 163 -140 230 -105 31 16 61 69 61 108 0 39 16 41 57 9 60 -47 106
-58 158 -38 50 19 69 45 86 110 14 56 28 58 80 12z m1485 -422 c12 -18 14 -28
6 -36 -23 -23 -61 14 -48 47 8 22 23 18 42 -11z m318 -14 c19 -33 14 -50 -14
-50 -48 0 -58 17 -40 64 11 31 30 26 54 -14z"/>
<path d="M3110 6832 c-69 -26 -152 -62 -185 -78 -33 -17 -91 -41 -128 -54
-112 -37 -200 -104 -374 -286 -87 -91 -169 -182 -181 -204 -52 -88 -16 -172
73 -172 58 0 112 42 225 172 69 81 195 202 247 239 18 12 64 33 102 46 38 13
89 34 113 48 24 14 99 46 168 72 l125 48 110 -12 c161 -17 242 -40 385 -110
52 -25 113 -54 135 -63 64 -28 154 -107 235 -207 41 -51 86 -99 100 -106 70
-39 150 6 150 85 0 54 -17 86 -106 197 -99 123 -197 195 -394 288 -209 100
-395 144 -595 144 -71 0 -93 -5 -205 -47z"/>
<path d="M5397 6644 c-104 -19 -172 -56 -297 -161 -219 -185 -248 -220 -236
-286 7 -39 31 -64 72 -76 59 -16 82 -1 362 231 33 27 78 54 107 63 77 24 251
29 401 12 141 -16 215 -38 389 -112 61 -26 151 -60 200 -75 285 -88 517 -217
694 -385 86 -82 107 -95 151 -95 42 0 67 15 86 52 35 67 -2 137 -130 250 -189
165 -442 300 -736 393 -58 19 -164 58 -236 88 -72 30 -157 62 -189 71 -144 42
-483 58 -638 30z"/>
<path d="M3295 6169 c-135 -7 -162 -16 -275 -88 -41 -26 -102 -62 -136 -80
-34 -18 -77 -49 -96 -69 -41 -43 -183 -264 -236 -367 -36 -69 -37 -72 -40
-211 -4 -133 -2 -147 28 -255 60 -217 89 -254 268 -343 59 -29 143 -72 187
-95 74 -38 90 -42 215 -56 266 -29 344 -20 503 61 132 67 169 91 303 201 154
125 176 155 235 316 54 147 83 264 84 337 0 43 -7 71 -34 125 -28 57 -61 96
-175 211 -159 159 -195 183 -378 250 -172 62 -260 75 -453 63z m328 -258 c171
-59 222 -90 333 -203 89 -90 103 -110 118 -160 9 -31 16 -67 16 -80 -1 -67
-74 -289 -108 -330 -35 -42 -177 -158 -245 -202 -32 -21 -94 -55 -139 -77 -82
-39 -82 -39 -202 -39 -200 1 -255 12 -365 73 -53 29 -123 66 -156 83 -72 37
-86 58 -121 189 -21 82 -25 115 -22 186 l4 87 89 149 c50 81 101 160 115 176
14 15 61 48 105 73 44 26 100 58 125 72 88 51 308 53 453 3z"/>
<path d="M3374 5541 c-22 -10 -57 -33 -78 -51 -107 -94 -88 -220 44 -294 49
-27 64 -31 135 -31 97 0 167 28 219 86 72 79 55 151 -54 233 -36 27 -79 55
-97 62 -45 19 -120 17 -169 -5z"/>
<path d="M5916 6168 c-92 -10 -253 -62 -376 -121 -77 -37 -99 -55 -231 -186
-234 -234 -250 -290 -169 -566 17 -57 69 -195 90 -234 29 -59 70 -102 184
-194 134 -110 171 -134 303 -201 159 -81 237 -90 503 -61 125 14 141 18 215
56 44 23 128 66 187 95 179 89 208 126 268 343 30 108 32 122 28 255 -3 139
-4 142 -40 211 -53 103 -195 324 -236 367 -19 20 -62 51 -96 69 -34 18 -95 54
-136 80 -106 67 -140 79 -239 85 -47 2 -106 6 -131 8 -25 1 -81 -1 -124 -6z
m329 -254 c90 -43 219 -123 245 -151 14 -16 65 -95 115 -176 l89 -149 4 -87
c3 -71 -1 -104 -22 -186 -35 -131 -49 -152 -121 -189 -33 -17 -103 -54 -156
-83 -110 -61 -165 -72 -365 -73 -120 0 -120 0 -202 39 -45 22 -107 56 -139 77
-68 44 -210 160 -245 202 -34 41 -107 263 -108 330 0 13 7 49 16 80 15 50 29
70 118 160 110 113 174 151 341 205 110 36 114 36 255 31 105 -5 133 -9 175
-30z"/>
<path d="M5885 5546 c-16 -8 -59 -36 -95 -62 -109 -82 -126 -154 -54 -233 52
-58 122 -86 219 -86 71 0 86 4 135 31 132 74 151 200 44 294 -75 65 -177 88
-249 56z"/>
<path d="M4641 4895 c-17 -15 -37 -47 -47 -77 -9 -28 -45 -111 -80 -185 -77
-161 -119 -209 -244 -272 -112 -56 -136 -76 -215 -173 -125 -156 -175 -272
-175 -407 0 -125 49 -251 144 -373 78 -99 127 -123 294 -147 40 -6 113 -27
162 -46 73 -29 103 -35 162 -35 40 0 90 5 110 10 81 23 115 117 64 177 -22 26
-32 28 -113 34 -66 4 -109 13 -171 37 -46 18 -126 39 -179 47 -52 8 -107 22
-120 30 -34 23 -100 127 -120 192 -14 46 -15 62 -5 111 16 78 52 145 120 227
51 61 73 78 161 125 171 89 229 154 338 380 66 136 83 185 83 243 0 105 -96
163 -169 102z"/>
<path d="M3555 3089 c-11 -7 -32 -23 -47 -37 -26 -24 -30 -25 -68 -13 -97 29
-189 -48 -206 -173 -12 -83 36 -156 103 -156 12 0 46 -9 75 -21 63 -25 106
-21 152 14 28 22 41 24 112 23 63 -2 88 -7 116 -24 41 -26 106 -29 146 -8 22
11 49 13 135 6 59 -5 111 -11 116 -14 5 -3 32 1 62 10 67 20 104 14 163 -27
79 -56 146 -42 204 41 32 47 59 51 93 14 76 -82 171 -95 248 -35 l41 32 67
-31 c38 -17 90 -43 117 -57 30 -16 78 -30 120 -35 173 -20 169 -20 202 1 48
30 86 85 91 134 4 36 1 48 -22 75 -15 18 -44 37 -68 44 -23 7 -62 25 -86 40
-52 33 -69 34 -133 11 -47 -16 -47 -16 -87 10 -21 14 -52 42 -67 62 -61 80
-127 86 -208 18 -15 -13 -41 -30 -57 -38 -28 -15 -30 -14 -84 35 -69 62 -95
64 -206 15 -44 -19 -88 -35 -98 -35 -25 0 -67 19 -120 55 -56 38 -107 38 -155
2 -37 -29 -108 -37 -203 -22 -36 5 -62 4 -83 -5 -30 -12 -33 -11 -70 28 -32
33 -48 42 -87 47 -27 3 -59 8 -73 11 -55 13 -116 14 -135 3z"/>
<path d="M3535 2346 c-50 -50 -44 -106 24 -250 39 -81 143 -228 197 -278 65
-59 189 -139 240 -154 47 -13 80 -14 252 -5 133 7 223 17 274 30 85 22 206 75
280 122 62 40 152 147 239 283 58 92 69 116 69 153 0 33 -6 50 -24 68 -73 73
-155 30 -256 -134 -69 -113 -142 -184 -230 -225 -41 -20 -102 -42 -135 -50
-81 -19 -381 -31 -420 -16 -53 20 -164 120 -216 193 -28 40 -68 108 -88 152
-45 97 -85 135 -142 135 -29 0 -47 -7 -64 -24z"/>
</g>
</svg>
